<mxfile host="app.diagrams.net" modified="2021-06-03T08:52:14.043Z" agent="5.0 (Macintosh; Intel Mac OS X 10_15_7) AppleWebKit/537.36 (KHTML, like Gecko) Chrome/90.0.4430.212 Safari/537.36" etag="UNMUXnUSZnwfsIZ5Lrpy" version="14.7.3" type="github">
  <diagram id="eoy-UlhVmJzXtOfgfpuk" name="Page-1">
    <mxGraphModel dx="2129" dy="620" grid="1" gridSize="10" guides="1" tooltips="1" connect="1" arrows="1" fold="1" page="1" pageScale="1" pageWidth="827" pageHeight="1169" math="0" shadow="0">
      <root>
        <mxCell id="0" />
        <mxCell id="1" parent="0" />
        <mxCell id="cqOHxlff053Kb3BKlrZg-102" style="edgeStyle=orthogonalEdgeStyle;rounded=0;orthogonalLoop=1;jettySize=auto;html=1;exitX=0;exitY=1;exitDx=0;exitDy=0;" edge="1" parent="1" source="cqOHxlff053Kb3BKlrZg-1">
          <mxGeometry relative="1" as="geometry">
            <mxPoint x="150" y="400" as="targetPoint" />
          </mxGeometry>
        </mxCell>
        <mxCell id="cqOHxlff053Kb3BKlrZg-1" value="Item" style="shape=table;startSize=30;container=1;collapsible=1;childLayout=tableLayout;fixedRows=1;rowLines=0;fontStyle=1;align=center;resizeLast=1;" vertex="1" parent="1">
          <mxGeometry x="150" y="220" width="180" height="180" as="geometry">
            <mxRectangle x="150" y="230" width="60" height="30" as="alternateBounds" />
          </mxGeometry>
        </mxCell>
        <mxCell id="cqOHxlff053Kb3BKlrZg-2" value="" style="shape=partialRectangle;collapsible=0;dropTarget=0;pointerEvents=0;fillColor=none;top=0;left=0;bottom=1;right=0;points=[[0,0.5],[1,0.5]];portConstraint=eastwest;" vertex="1" parent="cqOHxlff053Kb3BKlrZg-1">
          <mxGeometry y="30" width="180" height="30" as="geometry" />
        </mxCell>
        <mxCell id="cqOHxlff053Kb3BKlrZg-3" value="PK" style="shape=partialRectangle;connectable=0;fillColor=none;top=0;left=0;bottom=0;right=0;fontStyle=1;overflow=hidden;" vertex="1" parent="cqOHxlff053Kb3BKlrZg-2">
          <mxGeometry width="30" height="30" as="geometry" />
        </mxCell>
        <mxCell id="cqOHxlff053Kb3BKlrZg-4" value="xitemid" style="shape=partialRectangle;connectable=0;fillColor=none;top=0;left=0;bottom=0;right=0;align=left;spacingLeft=6;fontStyle=5;overflow=hidden;" vertex="1" parent="cqOHxlff053Kb3BKlrZg-2">
          <mxGeometry x="30" width="150" height="30" as="geometry" />
        </mxCell>
        <mxCell id="cqOHxlff053Kb3BKlrZg-5" value="" style="shape=partialRectangle;collapsible=0;dropTarget=0;pointerEvents=0;fillColor=none;top=0;left=0;bottom=0;right=0;points=[[0,0.5],[1,0.5]];portConstraint=eastwest;" vertex="1" parent="cqOHxlff053Kb3BKlrZg-1">
          <mxGeometry y="60" width="180" height="30" as="geometry" />
        </mxCell>
        <mxCell id="cqOHxlff053Kb3BKlrZg-6" value="" style="shape=partialRectangle;connectable=0;fillColor=none;top=0;left=0;bottom=0;right=0;editable=1;overflow=hidden;" vertex="1" parent="cqOHxlff053Kb3BKlrZg-5">
          <mxGeometry width="30" height="30" as="geometry" />
        </mxCell>
        <mxCell id="cqOHxlff053Kb3BKlrZg-7" value="platform" style="shape=partialRectangle;connectable=0;fillColor=none;top=0;left=0;bottom=0;right=0;align=left;spacingLeft=6;overflow=hidden;" vertex="1" parent="cqOHxlff053Kb3BKlrZg-5">
          <mxGeometry x="30" width="150" height="30" as="geometry" />
        </mxCell>
        <mxCell id="cqOHxlff053Kb3BKlrZg-11" value="" style="shape=partialRectangle;collapsible=0;dropTarget=0;pointerEvents=0;fillColor=none;top=0;left=0;bottom=0;right=0;points=[[0,0.5],[1,0.5]];portConstraint=eastwest;" vertex="1" parent="cqOHxlff053Kb3BKlrZg-1">
          <mxGeometry y="90" width="180" height="30" as="geometry" />
        </mxCell>
        <mxCell id="cqOHxlff053Kb3BKlrZg-12" value="" style="shape=partialRectangle;connectable=0;fillColor=none;top=0;left=0;bottom=0;right=0;editable=1;overflow=hidden;" vertex="1" parent="cqOHxlff053Kb3BKlrZg-11">
          <mxGeometry width="30" height="30" as="geometry" />
        </mxCell>
        <mxCell id="cqOHxlff053Kb3BKlrZg-13" value="max_version" style="shape=partialRectangle;connectable=0;fillColor=none;top=0;left=0;bottom=0;right=0;align=left;spacingLeft=6;overflow=hidden;" vertex="1" parent="cqOHxlff053Kb3BKlrZg-11">
          <mxGeometry x="30" width="150" height="30" as="geometry" />
        </mxCell>
        <mxCell id="cqOHxlff053Kb3BKlrZg-8" value="" style="shape=partialRectangle;collapsible=0;dropTarget=0;pointerEvents=0;fillColor=none;top=0;left=0;bottom=0;right=0;points=[[0,0.5],[1,0.5]];portConstraint=eastwest;" vertex="1" parent="cqOHxlff053Kb3BKlrZg-1">
          <mxGeometry y="120" width="180" height="30" as="geometry" />
        </mxCell>
        <mxCell id="cqOHxlff053Kb3BKlrZg-9" value="" style="shape=partialRectangle;connectable=0;fillColor=none;top=0;left=0;bottom=0;right=0;editable=1;overflow=hidden;" vertex="1" parent="cqOHxlff053Kb3BKlrZg-8">
          <mxGeometry width="30" height="30" as="geometry" />
        </mxCell>
        <mxCell id="cqOHxlff053Kb3BKlrZg-10" value="min_version" style="shape=partialRectangle;connectable=0;fillColor=none;top=0;left=0;bottom=0;right=0;align=left;spacingLeft=6;overflow=hidden;" vertex="1" parent="cqOHxlff053Kb3BKlrZg-8">
          <mxGeometry x="30" width="150" height="30" as="geometry" />
        </mxCell>
        <mxCell id="cqOHxlff053Kb3BKlrZg-14" value="Collection" style="shape=table;startSize=30;container=1;collapsible=1;childLayout=tableLayout;fixedRows=1;rowLines=0;fontStyle=1;align=center;resizeLast=1;" vertex="1" parent="1">
          <mxGeometry x="490" y="230" width="180" height="160" as="geometry" />
        </mxCell>
        <mxCell id="cqOHxlff053Kb3BKlrZg-15" value="" style="shape=partialRectangle;collapsible=0;dropTarget=0;pointerEvents=0;fillColor=none;top=0;left=0;bottom=1;right=0;points=[[0,0.5],[1,0.5]];portConstraint=eastwest;" vertex="1" parent="cqOHxlff053Kb3BKlrZg-14">
          <mxGeometry y="30" width="180" height="30" as="geometry" />
        </mxCell>
        <mxCell id="cqOHxlff053Kb3BKlrZg-16" value="PK" style="shape=partialRectangle;connectable=0;fillColor=none;top=0;left=0;bottom=0;right=0;fontStyle=1;overflow=hidden;" vertex="1" parent="cqOHxlff053Kb3BKlrZg-15">
          <mxGeometry width="30" height="30" as="geometry" />
        </mxCell>
        <mxCell id="cqOHxlff053Kb3BKlrZg-17" value="xcid" style="shape=partialRectangle;connectable=0;fillColor=none;top=0;left=0;bottom=0;right=0;align=left;spacingLeft=6;fontStyle=5;overflow=hidden;" vertex="1" parent="cqOHxlff053Kb3BKlrZg-15">
          <mxGeometry x="30" width="150" height="30" as="geometry" />
        </mxCell>
        <mxCell id="cqOHxlff053Kb3BKlrZg-18" value="" style="shape=partialRectangle;collapsible=0;dropTarget=0;pointerEvents=0;fillColor=none;top=0;left=0;bottom=0;right=0;points=[[0,0.5],[1,0.5]];portConstraint=eastwest;" vertex="1" parent="cqOHxlff053Kb3BKlrZg-14">
          <mxGeometry y="60" width="180" height="30" as="geometry" />
        </mxCell>
        <mxCell id="cqOHxlff053Kb3BKlrZg-19" value="" style="shape=partialRectangle;connectable=0;fillColor=none;top=0;left=0;bottom=0;right=0;editable=1;overflow=hidden;" vertex="1" parent="cqOHxlff053Kb3BKlrZg-18">
          <mxGeometry width="30" height="30" as="geometry" />
        </mxCell>
        <mxCell id="cqOHxlff053Kb3BKlrZg-20" value="platform" style="shape=partialRectangle;connectable=0;fillColor=none;top=0;left=0;bottom=0;right=0;align=left;spacingLeft=6;overflow=hidden;" vertex="1" parent="cqOHxlff053Kb3BKlrZg-18">
          <mxGeometry x="30" width="150" height="30" as="geometry" />
        </mxCell>
        <mxCell id="cqOHxlff053Kb3BKlrZg-21" value="" style="shape=partialRectangle;collapsible=0;dropTarget=0;pointerEvents=0;fillColor=none;top=0;left=0;bottom=0;right=0;points=[[0,0.5],[1,0.5]];portConstraint=eastwest;" vertex="1" parent="cqOHxlff053Kb3BKlrZg-14">
          <mxGeometry y="90" width="180" height="30" as="geometry" />
        </mxCell>
        <mxCell id="cqOHxlff053Kb3BKlrZg-22" value="" style="shape=partialRectangle;connectable=0;fillColor=none;top=0;left=0;bottom=0;right=0;editable=1;overflow=hidden;" vertex="1" parent="cqOHxlff053Kb3BKlrZg-21">
          <mxGeometry width="30" height="30" as="geometry" />
        </mxCell>
        <mxCell id="cqOHxlff053Kb3BKlrZg-23" value="min_version" style="shape=partialRectangle;connectable=0;fillColor=none;top=0;left=0;bottom=0;right=0;align=left;spacingLeft=6;overflow=hidden;" vertex="1" parent="cqOHxlff053Kb3BKlrZg-21">
          <mxGeometry x="30" width="150" height="30" as="geometry" />
        </mxCell>
        <mxCell id="cqOHxlff053Kb3BKlrZg-24" value="" style="shape=partialRectangle;collapsible=0;dropTarget=0;pointerEvents=0;fillColor=none;top=0;left=0;bottom=0;right=0;points=[[0,0.5],[1,0.5]];portConstraint=eastwest;" vertex="1" parent="cqOHxlff053Kb3BKlrZg-14">
          <mxGeometry y="120" width="180" height="30" as="geometry" />
        </mxCell>
        <mxCell id="cqOHxlff053Kb3BKlrZg-25" value="" style="shape=partialRectangle;connectable=0;fillColor=none;top=0;left=0;bottom=0;right=0;editable=1;overflow=hidden;" vertex="1" parent="cqOHxlff053Kb3BKlrZg-24">
          <mxGeometry width="30" height="30" as="geometry" />
        </mxCell>
        <mxCell id="cqOHxlff053Kb3BKlrZg-26" value="max_version" style="shape=partialRectangle;connectable=0;fillColor=none;top=0;left=0;bottom=0;right=0;align=left;spacingLeft=6;overflow=hidden;" vertex="1" parent="cqOHxlff053Kb3BKlrZg-24">
          <mxGeometry x="30" width="150" height="30" as="geometry" />
        </mxCell>
        <mxCell id="cqOHxlff053Kb3BKlrZg-28" value="专辑" style="shape=note;size=0;whiteSpace=wrap;html=1;" vertex="1" parent="1">
          <mxGeometry x="560" y="190" width="40" height="20" as="geometry" />
        </mxCell>
        <mxCell id="cqOHxlff053Kb3BKlrZg-29" value="游戏" style="shape=note;size=0;whiteSpace=wrap;html=1;" vertex="1" parent="1">
          <mxGeometry x="220" y="190" width="40" height="20" as="geometry" />
        </mxCell>
        <mxCell id="cqOHxlff053Kb3BKlrZg-30" style="edgeStyle=orthogonalEdgeStyle;rounded=0;orthogonalLoop=1;jettySize=auto;html=1;exitX=0.5;exitY=1;exitDx=0;exitDy=0;exitPerimeter=0;" edge="1" parent="1" source="cqOHxlff053Kb3BKlrZg-29" target="cqOHxlff053Kb3BKlrZg-29">
          <mxGeometry relative="1" as="geometry" />
        </mxCell>
        <mxCell id="cqOHxlff053Kb3BKlrZg-57" value="CollectionList" style="swimlane;fontStyle=0;childLayout=stackLayout;horizontal=1;startSize=26;horizontalStack=0;resizeParent=1;resizeParentMax=0;resizeLast=0;collapsible=1;marginBottom=0;align=center;fontSize=14;" vertex="1" parent="1">
          <mxGeometry x="490" y="470" width="180" height="116" as="geometry" />
        </mxCell>
        <mxCell id="cqOHxlff053Kb3BKlrZg-58" value="xcid1    xitemid1" style="text;strokeColor=none;fillColor=none;spacingLeft=4;spacingRight=4;overflow=hidden;rotatable=0;points=[[0,0.5],[1,0.5]];portConstraint=eastwest;fontSize=12;" vertex="1" parent="cqOHxlff053Kb3BKlrZg-57">
          <mxGeometry y="26" width="180" height="30" as="geometry" />
        </mxCell>
        <mxCell id="cqOHxlff053Kb3BKlrZg-59" value="xcid1    xitemid2" style="text;strokeColor=none;fillColor=none;spacingLeft=4;spacingRight=4;overflow=hidden;rotatable=0;points=[[0,0.5],[1,0.5]];portConstraint=eastwest;fontSize=12;" vertex="1" parent="cqOHxlff053Kb3BKlrZg-57">
          <mxGeometry y="56" width="180" height="30" as="geometry" />
        </mxCell>
        <mxCell id="cqOHxlff053Kb3BKlrZg-60" value="xcid1    xitemid3" style="text;strokeColor=none;fillColor=none;spacingLeft=4;spacingRight=4;overflow=hidden;rotatable=0;points=[[0,0.5],[1,0.5]];portConstraint=eastwest;fontSize=12;" vertex="1" parent="cqOHxlff053Kb3BKlrZg-57">
          <mxGeometry y="86" width="180" height="30" as="geometry" />
        </mxCell>
        <mxCell id="cqOHxlff053Kb3BKlrZg-61" value="ItemResList" style="swimlane;fontStyle=0;childLayout=stackLayout;horizontal=1;startSize=26;horizontalStack=0;resizeParent=1;resizeParentMax=0;resizeLast=0;collapsible=1;marginBottom=0;align=center;fontSize=14;" vertex="1" parent="1">
          <mxGeometry x="150" y="680" width="170" height="116" as="geometry" />
        </mxCell>
        <mxCell id="cqOHxlff053Kb3BKlrZg-62" value="xitemid     resid1" style="text;strokeColor=none;fillColor=none;spacingLeft=4;spacingRight=4;overflow=hidden;rotatable=0;points=[[0,0.5],[1,0.5]];portConstraint=eastwest;fontSize=12;" vertex="1" parent="cqOHxlff053Kb3BKlrZg-61">
          <mxGeometry y="26" width="170" height="30" as="geometry" />
        </mxCell>
        <mxCell id="cqOHxlff053Kb3BKlrZg-63" value="xitemid     resid2" style="text;strokeColor=none;fillColor=none;spacingLeft=4;spacingRight=4;overflow=hidden;rotatable=0;points=[[0,0.5],[1,0.5]];portConstraint=eastwest;fontSize=12;" vertex="1" parent="cqOHxlff053Kb3BKlrZg-61">
          <mxGeometry y="56" width="170" height="30" as="geometry" />
        </mxCell>
        <mxCell id="cqOHxlff053Kb3BKlrZg-64" value="xitemid     resid3" style="text;strokeColor=none;fillColor=none;spacingLeft=4;spacingRight=4;overflow=hidden;rotatable=0;points=[[0,0.5],[1,0.5]];portConstraint=eastwest;fontSize=12;" vertex="1" parent="cqOHxlff053Kb3BKlrZg-61">
          <mxGeometry y="86" width="170" height="30" as="geometry" />
        </mxCell>
        <mxCell id="cqOHxlff053Kb3BKlrZg-69" value="Res" style="shape=table;startSize=30;container=1;collapsible=1;childLayout=tableLayout;fixedRows=1;rowLines=0;fontStyle=1;align=center;resizeLast=1;" vertex="1" parent="1">
          <mxGeometry x="151" y="450" width="189" height="180" as="geometry" />
        </mxCell>
        <mxCell id="cqOHxlff053Kb3BKlrZg-70" value="" style="shape=partialRectangle;collapsible=0;dropTarget=0;pointerEvents=0;fillColor=none;top=0;left=0;bottom=1;right=0;points=[[0,0.5],[1,0.5]];portConstraint=eastwest;" vertex="1" parent="cqOHxlff053Kb3BKlrZg-69">
          <mxGeometry y="30" width="189" height="30" as="geometry" />
        </mxCell>
        <mxCell id="cqOHxlff053Kb3BKlrZg-71" value="PK" style="shape=partialRectangle;connectable=0;fillColor=none;top=0;left=0;bottom=0;right=0;fontStyle=1;overflow=hidden;" vertex="1" parent="cqOHxlff053Kb3BKlrZg-70">
          <mxGeometry width="30" height="30" as="geometry" />
        </mxCell>
        <mxCell id="cqOHxlff053Kb3BKlrZg-72" value="resid" style="shape=partialRectangle;connectable=0;fillColor=none;top=0;left=0;bottom=0;right=0;align=left;spacingLeft=6;fontStyle=5;overflow=hidden;" vertex="1" parent="cqOHxlff053Kb3BKlrZg-70">
          <mxGeometry x="30" width="159" height="30" as="geometry" />
        </mxCell>
        <mxCell id="cqOHxlff053Kb3BKlrZg-73" value="" style="shape=partialRectangle;collapsible=0;dropTarget=0;pointerEvents=0;fillColor=none;top=0;left=0;bottom=0;right=0;points=[[0,0.5],[1,0.5]];portConstraint=eastwest;" vertex="1" parent="cqOHxlff053Kb3BKlrZg-69">
          <mxGeometry y="60" width="189" height="30" as="geometry" />
        </mxCell>
        <mxCell id="cqOHxlff053Kb3BKlrZg-74" value="" style="shape=partialRectangle;connectable=0;fillColor=none;top=0;left=0;bottom=0;right=0;editable=1;overflow=hidden;" vertex="1" parent="cqOHxlff053Kb3BKlrZg-73">
          <mxGeometry width="30" height="30" as="geometry" />
        </mxCell>
        <mxCell id="cqOHxlff053Kb3BKlrZg-75" value="vid" style="shape=partialRectangle;connectable=0;fillColor=none;top=0;left=0;bottom=0;right=0;align=left;spacingLeft=6;overflow=hidden;" vertex="1" parent="cqOHxlff053Kb3BKlrZg-73">
          <mxGeometry x="30" width="159" height="30" as="geometry" />
        </mxCell>
        <mxCell id="cqOHxlff053Kb3BKlrZg-76" value="" style="shape=partialRectangle;collapsible=0;dropTarget=0;pointerEvents=0;fillColor=none;top=0;left=0;bottom=0;right=0;points=[[0,0.5],[1,0.5]];portConstraint=eastwest;" vertex="1" parent="cqOHxlff053Kb3BKlrZg-69">
          <mxGeometry y="90" width="189" height="30" as="geometry" />
        </mxCell>
        <mxCell id="cqOHxlff053Kb3BKlrZg-77" value="" style="shape=partialRectangle;connectable=0;fillColor=none;top=0;left=0;bottom=0;right=0;editable=1;overflow=hidden;" vertex="1" parent="cqOHxlff053Kb3BKlrZg-76">
          <mxGeometry width="30" height="30" as="geometry" />
        </mxCell>
        <mxCell id="cqOHxlff053Kb3BKlrZg-78" value="url" style="shape=partialRectangle;connectable=0;fillColor=none;top=0;left=0;bottom=0;right=0;align=left;spacingLeft=6;overflow=hidden;" vertex="1" parent="cqOHxlff053Kb3BKlrZg-76">
          <mxGeometry x="30" width="159" height="30" as="geometry" />
        </mxCell>
        <mxCell id="cqOHxlff053Kb3BKlrZg-79" value="" style="shape=partialRectangle;collapsible=0;dropTarget=0;pointerEvents=0;fillColor=none;top=0;left=0;bottom=0;right=0;points=[[0,0.5],[1,0.5]];portConstraint=eastwest;" vertex="1" parent="cqOHxlff053Kb3BKlrZg-69">
          <mxGeometry y="120" width="189" height="32" as="geometry" />
        </mxCell>
        <mxCell id="cqOHxlff053Kb3BKlrZg-80" value="" style="shape=partialRectangle;connectable=0;fillColor=none;top=0;left=0;bottom=0;right=0;editable=1;overflow=hidden;" vertex="1" parent="cqOHxlff053Kb3BKlrZg-79">
          <mxGeometry width="30" height="32" as="geometry" />
        </mxCell>
        <mxCell id="cqOHxlff053Kb3BKlrZg-81" value="md5" style="shape=partialRectangle;connectable=0;fillColor=none;top=0;left=0;bottom=0;right=0;align=left;spacingLeft=6;overflow=hidden;" vertex="1" parent="cqOHxlff053Kb3BKlrZg-79">
          <mxGeometry x="30" width="159" height="32" as="geometry" />
        </mxCell>
        <mxCell id="cqOHxlff053Kb3BKlrZg-82" value="资源" style="shape=note;size=0;whiteSpace=wrap;html=1;" vertex="1" parent="1">
          <mxGeometry x="220" y="410" width="40" height="20" as="geometry" />
        </mxCell>
        <mxCell id="cqOHxlff053Kb3BKlrZg-83" value="专辑和游戏关系" style="shape=note;size=0;whiteSpace=wrap;html=1;" vertex="1" parent="1">
          <mxGeometry x="532.5" y="417" width="95" height="23" as="geometry" />
        </mxCell>
        <mxCell id="cqOHxlff053Kb3BKlrZg-84" value="kind 资源类型：script，res" style="shape=partialRectangle;connectable=0;fillColor=none;top=0;left=0;bottom=0;right=0;align=left;spacingLeft=6;overflow=hidden;" vertex="1" parent="1">
          <mxGeometry x="180" y="600" width="150" height="32" as="geometry" />
        </mxCell>
        <mxCell id="cqOHxlff053Kb3BKlrZg-85" value="Tag" style="shape=table;startSize=30;container=1;collapsible=1;childLayout=tableLayout;fixedRows=1;rowLines=0;fontStyle=1;align=center;resizeLast=1;" vertex="1" parent="1">
          <mxGeometry x="-140" y="230" width="180" height="160" as="geometry" />
        </mxCell>
        <mxCell id="cqOHxlff053Kb3BKlrZg-86" value="" style="shape=partialRectangle;collapsible=0;dropTarget=0;pointerEvents=0;fillColor=none;top=0;left=0;bottom=1;right=0;points=[[0,0.5],[1,0.5]];portConstraint=eastwest;" vertex="1" parent="cqOHxlff053Kb3BKlrZg-85">
          <mxGeometry y="30" width="180" height="30" as="geometry" />
        </mxCell>
        <mxCell id="cqOHxlff053Kb3BKlrZg-87" value="PK" style="shape=partialRectangle;connectable=0;fillColor=none;top=0;left=0;bottom=0;right=0;fontStyle=1;overflow=hidden;" vertex="1" parent="cqOHxlff053Kb3BKlrZg-86">
          <mxGeometry width="30" height="30" as="geometry" />
        </mxCell>
        <mxCell id="cqOHxlff053Kb3BKlrZg-88" value="tagid" style="shape=partialRectangle;connectable=0;fillColor=none;top=0;left=0;bottom=0;right=0;align=left;spacingLeft=6;fontStyle=5;overflow=hidden;" vertex="1" parent="cqOHxlff053Kb3BKlrZg-86">
          <mxGeometry x="30" width="150" height="30" as="geometry" />
        </mxCell>
        <mxCell id="cqOHxlff053Kb3BKlrZg-89" value="" style="shape=partialRectangle;collapsible=0;dropTarget=0;pointerEvents=0;fillColor=none;top=0;left=0;bottom=0;right=0;points=[[0,0.5],[1,0.5]];portConstraint=eastwest;" vertex="1" parent="cqOHxlff053Kb3BKlrZg-85">
          <mxGeometry y="60" width="180" height="30" as="geometry" />
        </mxCell>
        <mxCell id="cqOHxlff053Kb3BKlrZg-90" value="" style="shape=partialRectangle;connectable=0;fillColor=none;top=0;left=0;bottom=0;right=0;editable=1;overflow=hidden;" vertex="1" parent="cqOHxlff053Kb3BKlrZg-89">
          <mxGeometry width="30" height="30" as="geometry" />
        </mxCell>
        <mxCell id="cqOHxlff053Kb3BKlrZg-91" value="doubbing" style="shape=partialRectangle;connectable=0;fillColor=none;top=0;left=0;bottom=0;right=0;align=left;spacingLeft=6;overflow=hidden;" vertex="1" parent="cqOHxlff053Kb3BKlrZg-89">
          <mxGeometry x="30" width="150" height="30" as="geometry" />
        </mxCell>
        <mxCell id="cqOHxlff053Kb3BKlrZg-92" value="" style="shape=partialRectangle;collapsible=0;dropTarget=0;pointerEvents=0;fillColor=none;top=0;left=0;bottom=0;right=0;points=[[0,0.5],[1,0.5]];portConstraint=eastwest;" vertex="1" parent="cqOHxlff053Kb3BKlrZg-85">
          <mxGeometry y="90" width="180" height="30" as="geometry" />
        </mxCell>
        <mxCell id="cqOHxlff053Kb3BKlrZg-93" value="" style="shape=partialRectangle;connectable=0;fillColor=none;top=0;left=0;bottom=0;right=0;editable=1;overflow=hidden;" vertex="1" parent="cqOHxlff053Kb3BKlrZg-92">
          <mxGeometry width="30" height="30" as="geometry" />
        </mxCell>
        <mxCell id="cqOHxlff053Kb3BKlrZg-94" value="row 2" style="shape=partialRectangle;connectable=0;fillColor=none;top=0;left=0;bottom=0;right=0;align=left;spacingLeft=6;overflow=hidden;" vertex="1" parent="cqOHxlff053Kb3BKlrZg-92">
          <mxGeometry x="30" width="150" height="30" as="geometry" />
        </mxCell>
        <mxCell id="cqOHxlff053Kb3BKlrZg-95" value="" style="shape=partialRectangle;collapsible=0;dropTarget=0;pointerEvents=0;fillColor=none;top=0;left=0;bottom=0;right=0;points=[[0,0.5],[1,0.5]];portConstraint=eastwest;" vertex="1" parent="cqOHxlff053Kb3BKlrZg-85">
          <mxGeometry y="120" width="180" height="30" as="geometry" />
        </mxCell>
        <mxCell id="cqOHxlff053Kb3BKlrZg-96" value="" style="shape=partialRectangle;connectable=0;fillColor=none;top=0;left=0;bottom=0;right=0;editable=1;overflow=hidden;" vertex="1" parent="cqOHxlff053Kb3BKlrZg-95">
          <mxGeometry width="30" height="30" as="geometry" />
        </mxCell>
        <mxCell id="cqOHxlff053Kb3BKlrZg-97" value="row 3" style="shape=partialRectangle;connectable=0;fillColor=none;top=0;left=0;bottom=0;right=0;align=left;spacingLeft=6;overflow=hidden;" vertex="1" parent="cqOHxlff053Kb3BKlrZg-95">
          <mxGeometry x="30" width="150" height="30" as="geometry" />
        </mxCell>
        <mxCell id="cqOHxlff053Kb3BKlrZg-98" value="标签" style="shape=note;size=0;whiteSpace=wrap;html=1;" vertex="1" parent="1">
          <mxGeometry x="-80" y="190" width="40" height="20" as="geometry" />
        </mxCell>
        <mxCell id="cqOHxlff053Kb3BKlrZg-99" value="游戏和资源关系" style="shape=note;size=0;whiteSpace=wrap;html=1;" vertex="1" parent="1">
          <mxGeometry x="187.5" y="640" width="95" height="23" as="geometry" />
        </mxCell>
        <mxCell id="cqOHxlff053Kb3BKlrZg-101" value="tag_id" style="shape=partialRectangle;connectable=0;fillColor=none;top=0;left=0;bottom=0;right=0;align=left;spacingLeft=6;overflow=hidden;" vertex="1" parent="1">
          <mxGeometry x="180" y="370" width="150" height="30" as="geometry" />
        </mxCell>
      </root>
    </mxGraphModel>
  </diagram>
</mxfile>
